# OBJ file
# Vertices: 18
v 0.125 1.0 0.0
v -0.125 1.0 0.0
v 0.125 0.7071067811865476 0.7071067811865475
v -0.125 0.7071067811865476 0.7071067811865475
v 0.125 6.123233995736766e-17 1.0
v -0.125 6.123233995736766e-17 1.0
v 0.125 -0.7071067811865475 0.7071067811865476
v -0.125 -0.7071067811865475 0.7071067811865476
v 0.125 -1.0 1.2246467991473532e-16
v -0.125 -1.0 1.2246467991473532e-16
v 0.125 -0.7071067811865477 -0.7071067811865475
v -0.125 -0.7071067811865477 -0.7071067811865475
v 0.125 -1.8369701987210297e-16 -1.0
v -0.125 -1.8369701987210297e-16 -1.0
v 0.125 0.7071067811865475 -0.7071067811865477
v -0.125 0.7071067811865475 -0.7071067811865477
v 0.125 0 0
v -0.125 0 0
# Vertex normals: 10
vn 0.0 0.9238795325112868 -0.3826834323650898
vn 1.0 0.0 0.0
vn -1.0 0.0 0.0
vn 0.0 0.9238795325112867 0.3826834323650898
vn 0.0 0.3826834323650899 0.9238795325112867
vn 0.0 -0.38268343236508967 0.9238795325112866
vn 0.0 -0.9238795325112867 0.3826834323650899
vn -0.0 -0.9238795325112868 -0.38268343236508956
vn -0.0 -0.3826834323650899 -0.9238795325112867
vn 0.0 0.3826834323650895 -0.9238795325112868
# Faces: 32
f 2//1 1//1 15//1
f 2//1 15//1 16//1
f 15//2 1//2 17//2
f 2//3 16//3 18//3
f 4//4 3//4 1//4
f 4//4 1//4 2//4
f 1//2 3//2 17//2
f 4//3 2//3 18//3
f 6//5 5//5 3//5
f 6//5 3//5 4//5
f 3//2 5//2 17//2
f 6//3 4//3 18//3
f 8//6 7//6 5//6
f 8//6 5//6 6//6
f 5//2 7//2 17//2
f 8//3 6//3 18//3
f 10//7 9//7 7//7
f 10//7 7//7 8//7
f 7//2 9//2 17//2
f 10//3 8//3 18//3
f 12//8 11//8 9//8
f 12//8 9//8 10//8
f 9//2 11//2 17//2
f 12//3 10//3 18//3
f 14//9 13//9 11//9
f 14//9 11//9 12//9
f 11//2 13//2 17//2
f 14//3 12//3 18//3
f 16//10 15//10 13//10
f 16//10 13//10 14//10
f 13//2 15//2 17//2
f 16//3 14//3 18//3